# xmcd CD database file
#
# Track frame offsets:
#	150
#	13120
#	30195
#	45482
#	60142
#	77782
#	93877
#	106837
#	119027
#	137125
#	156475
#
# Disc length: 2324 seconds
#
# Revision: 0
# Processed by: cddbd v1.5.1PL0 Copyright (c) Steve Scherf et al.
# Submitted via: CDex 1.51
#
DISCID=8009120b
DTITLE=Doug Adkins - Time Keeps Movin On
DYEAR=1996
DGENRE=Country
TTITLE0=Think abaout You
TTITLE1=One Wrong Step
TTITLE2=I can't  love Yoy anymore
TTITLE3=15 minutes past midnight
TTITLE4=Devil of a Woman
TTITLE5=Day to Day
TTITLE6=Don't turn around
TTITLE7=Peace of mind
TTITLE8=What You can't see might be paradise
TTITLE9=Time keep movin on
TTITLE10=Stand in the rain
EXTD=YEAR: 1996
EXTT0=
EXTT1=
EXTT2=
EXTT3=
EXTT4=
EXTT5=
EXTT6=
EXTT7=
EXTT8=
EXTT9=
EXTT10=
PLAYORDER=
